<mxfile host="app.diagrams.net" agent="Mozilla/5.0 (Windows NT 10.0; Win64; x64) AppleWebKit/537.36 (KHTML, like Gecko) Chrome/131.0.0.0 Safari/537.36" version="24.8.6">
  <diagram name="Сторінка-1" id="AS4I033fnUVtO7tsPEeG">
    <mxGraphModel dx="1050" dy="530" grid="1" gridSize="10" guides="1" tooltips="1" connect="1" arrows="1" fold="1" page="1" pageScale="1" pageWidth="827" pageHeight="1169" math="0" shadow="0">
      <root>
        <mxCell id="0" />
        <mxCell id="1" parent="0" />
        <mxCell id="f8QCkLsB3u9u4WGL6wmr-1" value="&lt;font style=&quot;font-size: 14px;&quot;&gt;End&lt;/font&gt;" style="ellipse;whiteSpace=wrap;html=1;" vertex="1" parent="1">
          <mxGeometry x="354" y="670" width="120" height="50" as="geometry" />
        </mxCell>
        <mxCell id="f8QCkLsB3u9u4WGL6wmr-2" style="edgeStyle=orthogonalEdgeStyle;rounded=0;orthogonalLoop=1;jettySize=auto;html=1;exitX=0.5;exitY=1;exitDx=0;exitDy=0;entryX=0.5;entryY=0;entryDx=0;entryDy=0;" edge="1" parent="1" source="f8QCkLsB3u9u4WGL6wmr-3" target="f8QCkLsB3u9u4WGL6wmr-5">
          <mxGeometry relative="1" as="geometry">
            <mxPoint x="414" y="130" as="targetPoint" />
          </mxGeometry>
        </mxCell>
        <mxCell id="f8QCkLsB3u9u4WGL6wmr-3" value="&lt;font style=&quot;font-size: 14px;&quot;&gt;Start&lt;/font&gt;" style="ellipse;whiteSpace=wrap;html=1;" vertex="1" parent="1">
          <mxGeometry x="354" y="40" width="120" height="50" as="geometry" />
        </mxCell>
        <mxCell id="f8QCkLsB3u9u4WGL6wmr-4" style="edgeStyle=orthogonalEdgeStyle;rounded=0;orthogonalLoop=1;jettySize=auto;html=1;exitX=0.5;exitY=1;exitDx=0;exitDy=0;entryX=0.5;entryY=0;entryDx=0;entryDy=0;" edge="1" parent="1" source="f8QCkLsB3u9u4WGL6wmr-5" target="f8QCkLsB3u9u4WGL6wmr-7">
          <mxGeometry relative="1" as="geometry" />
        </mxCell>
        <mxCell id="f8QCkLsB3u9u4WGL6wmr-5" value="&lt;span style=&quot;font-size: 14px;&quot;&gt;double r1, r2, h&lt;/span&gt;" style="shape=parallelogram;perimeter=parallelogramPerimeter;whiteSpace=wrap;html=1;fixedSize=1;" vertex="1" parent="1">
          <mxGeometry x="347" y="130" width="134" height="60" as="geometry" />
        </mxCell>
        <mxCell id="f8QCkLsB3u9u4WGL6wmr-6" style="edgeStyle=orthogonalEdgeStyle;rounded=0;orthogonalLoop=1;jettySize=auto;html=1;exitX=0.5;exitY=1;exitDx=0;exitDy=0;entryX=0.5;entryY=0;entryDx=0;entryDy=0;" edge="1" parent="1" source="f8QCkLsB3u9u4WGL6wmr-7" target="f8QCkLsB3u9u4WGL6wmr-12">
          <mxGeometry relative="1" as="geometry" />
        </mxCell>
        <mxCell id="f8QCkLsB3u9u4WGL6wmr-7" value="&lt;span style=&quot;font-size: 14px;&quot;&gt;input r1, r2, h&lt;/span&gt;" style="shape=parallelogram;perimeter=parallelogramPerimeter;whiteSpace=wrap;html=1;fixedSize=1;" vertex="1" parent="1">
          <mxGeometry x="354" y="250" width="120" height="60" as="geometry" />
        </mxCell>
        <mxCell id="f8QCkLsB3u9u4WGL6wmr-8" style="edgeStyle=orthogonalEdgeStyle;rounded=0;orthogonalLoop=1;jettySize=auto;html=1;exitX=1;exitY=0.5;exitDx=0;exitDy=0;entryX=0;entryY=0.5;entryDx=0;entryDy=0;" edge="1" parent="1" source="f8QCkLsB3u9u4WGL6wmr-12" target="f8QCkLsB3u9u4WGL6wmr-14">
          <mxGeometry relative="1" as="geometry" />
        </mxCell>
        <mxCell id="f8QCkLsB3u9u4WGL6wmr-9" value="Yes" style="edgeLabel;html=1;align=center;verticalAlign=middle;resizable=0;points=[];" vertex="1" connectable="0" parent="f8QCkLsB3u9u4WGL6wmr-8">
          <mxGeometry x="-0.4353" relative="1" as="geometry">
            <mxPoint as="offset" />
          </mxGeometry>
        </mxCell>
        <mxCell id="f8QCkLsB3u9u4WGL6wmr-10" style="edgeStyle=orthogonalEdgeStyle;rounded=0;orthogonalLoop=1;jettySize=auto;html=1;exitX=0.5;exitY=1;exitDx=0;exitDy=0;entryX=0.5;entryY=0;entryDx=0;entryDy=0;" edge="1" parent="1" source="f8QCkLsB3u9u4WGL6wmr-12" target="f8QCkLsB3u9u4WGL6wmr-16">
          <mxGeometry relative="1" as="geometry" />
        </mxCell>
        <mxCell id="f8QCkLsB3u9u4WGL6wmr-11" value="No" style="edgeLabel;html=1;align=center;verticalAlign=middle;resizable=0;points=[];" vertex="1" connectable="0" parent="f8QCkLsB3u9u4WGL6wmr-10">
          <mxGeometry x="-0.2654" y="-1" relative="1" as="geometry">
            <mxPoint as="offset" />
          </mxGeometry>
        </mxCell>
        <mxCell id="f8QCkLsB3u9u4WGL6wmr-12" value="&lt;font style=&quot;font-size: 14px;&quot;&gt;r1&amp;lt;=0 || r2&amp;lt;=0 || h&amp;lt;=0&lt;/font&gt;" style="rhombus;whiteSpace=wrap;html=1;" vertex="1" parent="1">
          <mxGeometry x="349" y="340" width="129" height="129" as="geometry" />
        </mxCell>
        <mxCell id="f8QCkLsB3u9u4WGL6wmr-13" style="edgeStyle=orthogonalEdgeStyle;rounded=0;orthogonalLoop=1;jettySize=auto;html=1;exitX=0.5;exitY=1;exitDx=0;exitDy=0;entryX=1;entryY=0.5;entryDx=0;entryDy=0;" edge="1" parent="1" source="f8QCkLsB3u9u4WGL6wmr-14" target="f8QCkLsB3u9u4WGL6wmr-1">
          <mxGeometry relative="1" as="geometry" />
        </mxCell>
        <mxCell id="f8QCkLsB3u9u4WGL6wmr-14" value="&lt;font style=&quot;font-size: 14px;&quot;&gt;Incorrect value&lt;/font&gt;" style="shape=parallelogram;perimeter=parallelogramPerimeter;whiteSpace=wrap;html=1;fixedSize=1;" vertex="1" parent="1">
          <mxGeometry x="570" y="374.5" width="120" height="60" as="geometry" />
        </mxCell>
        <mxCell id="f8QCkLsB3u9u4WGL6wmr-15" style="edgeStyle=orthogonalEdgeStyle;rounded=0;orthogonalLoop=1;jettySize=auto;html=1;exitX=0.5;exitY=1;exitDx=0;exitDy=0;entryX=0.5;entryY=0;entryDx=0;entryDy=0;" edge="1" parent="1" source="f8QCkLsB3u9u4WGL6wmr-16" target="f8QCkLsB3u9u4WGL6wmr-18">
          <mxGeometry relative="1" as="geometry" />
        </mxCell>
        <mxCell id="f8QCkLsB3u9u4WGL6wmr-16" value="&lt;font style=&quot;font-size: 14px;&quot;&gt;calculating volume (V)&lt;/font&gt;" style="rounded=1;whiteSpace=wrap;html=1;" vertex="1" parent="1">
          <mxGeometry x="354" y="500" width="120" height="60" as="geometry" />
        </mxCell>
        <mxCell id="f8QCkLsB3u9u4WGL6wmr-17" style="edgeStyle=orthogonalEdgeStyle;rounded=0;orthogonalLoop=1;jettySize=auto;html=1;exitX=0.5;exitY=1;exitDx=0;exitDy=0;entryX=0.5;entryY=0;entryDx=0;entryDy=0;" edge="1" parent="1" source="f8QCkLsB3u9u4WGL6wmr-18" target="f8QCkLsB3u9u4WGL6wmr-1">
          <mxGeometry relative="1" as="geometry" />
        </mxCell>
        <mxCell id="f8QCkLsB3u9u4WGL6wmr-18" value="&lt;font style=&quot;font-size: 14px;&quot;&gt;V&lt;/font&gt;" style="shape=parallelogram;perimeter=parallelogramPerimeter;whiteSpace=wrap;html=1;fixedSize=1;" vertex="1" parent="1">
          <mxGeometry x="354" y="585" width="120" height="60" as="geometry" />
        </mxCell>
      </root>
    </mxGraphModel>
  </diagram>
</mxfile>
